<?xml version="1.0" encoding="utf-8" standalone="no"?>
<!DOCTYPE svg PUBLIC "-//W3C//DTD SVG 1.1//EN"
  "http://www.w3.org/Graphics/SVG/1.1/DTD/svg11.dtd">
<svg xmlns:xlink="http://www.w3.org/1999/xlink" width="1728pt" height="1008pt" viewBox="0 0 1728 1008" xmlns="http://www.w3.org/2000/svg" version="1.1">
 <metadata>
  <rdf:RDF xmlns:dc="http://purl.org/dc/elements/1.1/" xmlns:cc="http://creativecommons.org/ns#" xmlns:rdf="http://www.w3.org/1999/02/22-rdf-syntax-ns#">
   <cc:Work>
    <dc:type rdf:resource="http://purl.org/dc/dcmitype/StillImage"/>
    <dc:date>2025-08-10T13:25:14.933372</dc:date>
    <dc:format>image/svg+xml</dc:format>
    <dc:creator>
     <cc:Agent>
      <dc:title>Matplotlib v3.6.3, https://matplotlib.org/</dc:title>
     </cc:Agent>
    </dc:creator>
   </cc:Work>
  </rdf:RDF>
 </metadata>
 <defs>
  <style type="text/css">*{stroke-linejoin: round; stroke-linecap: butt}</style>
 </defs>
 <g id="figure_1">
  <g id="patch_1">
   <path d="M 0 1008 
L 1728 1008 
L 1728 0 
L 0 0 
z
" style="fill: #ffffff"/>
  </g>
  <g id="axes_1">
   <g id="patch_2">
    <path d="M 95.472 302.064 
L 282.96 302.064 
L 282.96 185.64 
L 95.472 185.64 
L 95.472 302.064 
z
" clip-path="url(#p99261fc694)" style="fill: none; stroke: #000000; stroke-linejoin: miter"/>
   </g>
   <g id="patch_3">
    <path d="M 323.136 302.064 
L 510.624 302.064 
L 510.624 185.64 
L 323.136 185.64 
L 323.136 302.064 
z
" clip-path="url(#p99261fc694)" style="fill: none; stroke: #000000; stroke-linejoin: miter"/>
   </g>
   <g id="patch_4">
    <path d="M 284.956049 243.852 
Q 303.046317 243.852 319.571338 243.852 
" clip-path="url(#p99261fc694)" style="fill: none; stroke: #000000; stroke-width: 1.4; stroke-linecap: round"/>
    <path d="M 313.971338 241.052 
L 319.571338 243.852 
L 313.971338 246.652 
" clip-path="url(#p99261fc694)" style="fill: none; stroke: #000000; stroke-width: 1.4; stroke-linecap: round"/>
   </g>
   <g id="patch_5">
    <path d="M 550.8 302.064 
L 738.288 302.064 
L 738.288 185.64 
L 550.8 185.64 
L 550.8 302.064 
z
" clip-path="url(#p99261fc694)" style="fill: none; stroke: #000000; stroke-linejoin: miter"/>
   </g>
   <g id="patch_6">
    <path d="M 512.620049 243.852 
Q 530.710317 243.852 547.235338 243.852 
" clip-path="url(#p99261fc694)" style="fill: none; stroke: #000000; stroke-width: 1.4; stroke-linecap: round"/>
    <path d="M 541.635338 241.052 
L 547.235338 243.852 
L 541.635338 246.652 
" clip-path="url(#p99261fc694)" style="fill: none; stroke: #000000; stroke-width: 1.4; stroke-linecap: round"/>
   </g>
   <g id="patch_7">
    <path d="M 778.464 302.064 
L 965.952 302.064 
L 965.952 185.64 
L 778.464 185.64 
L 778.464 302.064 
z
" clip-path="url(#p99261fc694)" style="fill: none; stroke: #000000; stroke-linejoin: miter"/>
   </g>
   <g id="patch_8">
    <path d="M 740.284049 243.852 
Q 758.374317 243.852 774.899338 243.852 
" clip-path="url(#p99261fc694)" style="fill: none; stroke: #000000; stroke-width: 1.4; stroke-linecap: round"/>
    <path d="M 769.299338 241.052 
L 774.899338 243.852 
L 769.299338 246.652 
" clip-path="url(#p99261fc694)" style="fill: none; stroke: #000000; stroke-width: 1.4; stroke-linecap: round"/>
   </g>
   <g id="patch_9">
    <path d="M 1006.128 302.064 
L 1193.616 302.064 
L 1193.616 185.64 
L 1006.128 185.64 
L 1006.128 302.064 
z
" clip-path="url(#p99261fc694)" style="fill: none; stroke: #000000; stroke-linejoin: miter"/>
   </g>
   <g id="patch_10">
    <path d="M 967.948049 243.852 
Q 986.038317 243.852 1002.563338 243.852 
" clip-path="url(#p99261fc694)" style="fill: none; stroke: #000000; stroke-width: 1.4; stroke-linecap: round"/>
    <path d="M 996.963338 241.052 
L 1002.563338 243.852 
L 996.963338 246.652 
" clip-path="url(#p99261fc694)" style="fill: none; stroke: #000000; stroke-width: 1.4; stroke-linecap: round"/>
   </g>
   <g id="patch_11">
    <path d="M 1233.792 302.064 
L 1421.28 302.064 
L 1421.28 185.64 
L 1233.792 185.64 
L 1233.792 302.064 
z
" clip-path="url(#p99261fc694)" style="fill: none; stroke: #000000; stroke-linejoin: miter"/>
   </g>
   <g id="patch_12">
    <path d="M 1195.612049 243.852 
Q 1213.702317 243.852 1230.227338 243.852 
" clip-path="url(#p99261fc694)" style="fill: none; stroke: #000000; stroke-width: 1.4; stroke-linecap: round"/>
    <path d="M 1224.627338 241.052 
L 1230.227338 243.852 
L 1224.627338 246.652 
" clip-path="url(#p99261fc694)" style="fill: none; stroke: #000000; stroke-width: 1.4; stroke-linecap: round"/>
   </g>
   <g id="patch_13">
    <path d="M 644.544 444.36 
L 832.032 444.36 
L 832.032 327.936 
L 644.544 327.936 
L 644.544 444.36 
z
" clip-path="url(#p99261fc694)" style="fill: none; stroke: #000000; stroke-linejoin: miter"/>
   </g>
   <g id="patch_14">
    <path d="M 872.208 444.36 
L 1059.696 444.36 
L 1059.696 327.936 
L 872.208 327.936 
L 872.208 444.36 
z
" clip-path="url(#p99261fc694)" style="fill: none; stroke: #000000; stroke-linejoin: miter"/>
   </g>
   <g id="patch_15">
    <path d="M 1099.872 444.36 
L 1287.36 444.36 
L 1287.36 327.936 
L 1099.872 327.936 
L 1099.872 444.36 
z
" clip-path="url(#p99261fc694)" style="fill: none; stroke: #000000; stroke-linejoin: miter"/>
   </g>
   <g id="patch_16">
    <path d="M 416.88 444.36 
L 604.368 444.36 
L 604.368 327.936 
L 416.88 327.936 
L 416.88 444.36 
z
" clip-path="url(#p99261fc694)" style="fill: none; stroke: #000000; stroke-linejoin: miter"/>
   </g>
   <g id="patch_17">
    <path d="M 1419.281652 302.139698 
Q 1079.783674 315.000012 741.849822 327.801077 
" clip-path="url(#p99261fc694)" style="fill: none; stroke: #000000; stroke-width: 1.4; stroke-linecap: round"/>
    <path d="M 747.551798 330.387092 
L 741.849822 327.801077 
L 747.33982 324.791105 
" clip-path="url(#p99261fc694)" style="fill: none; stroke: #000000; stroke-width: 1.4; stroke-linecap: round"/>
   </g>
   <g id="patch_18">
    <path d="M 1419.282521 302.120749 
Q 965.953276 314.999964 514.188647 327.834727 
" clip-path="url(#p99261fc694)" style="fill: none; stroke: #000000; stroke-width: 1.4; stroke-linecap: round"/>
    <path d="M 519.865905 330.474565 
L 514.188647 327.834727 
L 519.706871 324.876823 
" clip-path="url(#p99261fc694)" style="fill: none; stroke: #000000; stroke-width: 1.4; stroke-linecap: round"/>
   </g>
   <g id="patch_19">
    <path d="M 644.544 586.656 
L 832.032 586.656 
L 832.032 470.232 
L 644.544 470.232 
L 644.544 586.656 
z
" clip-path="url(#p99261fc694)" style="fill: none; stroke: #000000; stroke-linejoin: miter"/>
   </g>
   <g id="patch_20">
    <path d="M 872.208 586.656 
L 1059.696 586.656 
L 1059.696 470.232 
L 872.208 470.232 
L 872.208 586.656 
z
" clip-path="url(#p99261fc694)" style="fill: none; stroke: #000000; stroke-linejoin: miter"/>
   </g>
   <g id="patch_21">
    <path d="M 1099.872 586.656 
L 1287.36 586.656 
L 1287.36 470.232 
L 1099.872 470.232 
L 1099.872 586.656 
z
" clip-path="url(#p99261fc694)" style="fill: none; stroke: #000000; stroke-linejoin: miter"/>
   </g>
   <g id="patch_22">
    <path d="M 512.614531 444.586206 
Q 624.457815 457.296206 734.745861 469.829467 
" clip-path="url(#p99261fc694)" style="fill: none; stroke: #000000; stroke-width: 1.4; stroke-linecap: round"/>
    <path d="M 729.497835 466.415053 
L 734.745861 469.829467 
L 728.865514 471.97924 
" clip-path="url(#p99261fc694)" style="fill: none; stroke: #000000; stroke-width: 1.4; stroke-linecap: round"/>
   </g>
   <g id="patch_23">
    <path d="M 834.028049 528.444 
Q 852.118317 528.444 868.643338 528.444 
" clip-path="url(#p99261fc694)" style="fill: none; stroke: #000000; stroke-width: 1.4; stroke-linecap: round"/>
    <path d="M 863.043338 525.644 
L 868.643338 528.444 
L 863.043338 531.244 
" clip-path="url(#p99261fc694)" style="fill: none; stroke: #000000; stroke-width: 1.4; stroke-linecap: round"/>
   </g>
   <g id="patch_24">
    <path d="M 1061.692049 528.444 
Q 1079.782317 528.444 1096.307338 528.444 
" clip-path="url(#p99261fc694)" style="fill: none; stroke: #000000; stroke-width: 1.4; stroke-linecap: round"/>
    <path d="M 1090.707338 525.644 
L 1096.307338 528.444 
L 1090.707338 531.244 
" clip-path="url(#p99261fc694)" style="fill: none; stroke: #000000; stroke-width: 1.4; stroke-linecap: round"/>
   </g>
   <g id="patch_25">
    <path d="M 403.488 728.952 
L 617.76 728.952 
L 617.76 612.528 
L 403.488 612.528 
L 403.488 728.952 
z
" clip-path="url(#p99261fc694)" style="fill: none; stroke: #000000; stroke-linejoin: miter"/>
   </g>
   <g id="patch_26">
    <path d="M 631.152 728.952 
L 845.424 728.952 
L 845.424 612.528 
L 631.152 612.528 
L 631.152 728.952 
z
" clip-path="url(#p99261fc694)" style="fill: none; stroke: #000000; stroke-linejoin: miter"/>
   </g>
   <g id="patch_27">
    <path d="M 1086.48 728.952 
L 1300.752 728.952 
L 1300.752 612.528 
L 1086.48 612.528 
L 1086.48 728.952 
z
" clip-path="url(#p99261fc694)" style="fill: none; stroke: #000000; stroke-linejoin: miter"/>
   </g>
   <g id="patch_28">
    <path d="M 964.769145 303.677052 
Q 852.120383 457.295478 740.397226 609.651661 
" clip-path="url(#p99261fc694)" style="fill: none; stroke: #000000; stroke-width: 1.4; stroke-linecap: round"/>
    <path d="M 745.966739 606.791499 
L 740.397226 609.651661 
L 741.450805 603.479954 
" clip-path="url(#p99261fc694)" style="fill: none; stroke: #000000; stroke-width: 1.4; stroke-linecap: round"/>
   </g>
   <g id="patch_29">
    <path d="M 964.301908 303.18911 
Q 738.288471 457.295679 513.568267 610.52046 
" clip-path="url(#p99261fc694)" style="fill: none; stroke: #000000; stroke-width: 1.4; stroke-linecap: round"/>
    <path d="M 519.772467 609.679089 
L 513.568267 610.52046 
L 516.61769 605.052278 
" clip-path="url(#p99261fc694)" style="fill: none; stroke: #000000; stroke-width: 1.4; stroke-linecap: round"/>
   </g>
   <g id="patch_30">
    <path d="M 1193.616 446.358945 
Q 1193.616 528.443203 1193.616 608.962212 
" clip-path="url(#p99261fc694)" style="fill: none; stroke: #000000; stroke-width: 1.4; stroke-linecap: round"/>
    <path d="M 1196.416 603.362212 
L 1193.616 608.962212 
L 1190.816 603.362212 
" clip-path="url(#p99261fc694)" style="fill: none; stroke: #000000; stroke-width: 1.4; stroke-linecap: round"/>
   </g>
   <g id="patch_31">
    <path d="M 282.96 586.656 
L 497.232 586.656 
L 497.232 470.232 
L 282.96 470.232 
L 282.96 586.656 
z
" clip-path="url(#p99261fc694)" style="fill: none; stroke: #000000; stroke-linejoin: miter"/>
   </g>
   <g id="patch_32">
    <path d="M 282.96 728.952 
L 497.232 728.952 
L 497.232 612.528 
L 282.96 612.528 
L 282.96 728.952 
z
" clip-path="url(#p99261fc694)" style="fill: none; stroke: #000000; stroke-linejoin: miter"/>
   </g>
   <g id="patch_33">
    <path d="M 496.248688 526.702646 
Q 457.05725 457.298213 418.635449 389.256739 
" clip-path="url(#p99261fc694)" style="fill: none; stroke: #000000; stroke-width: 1.4; stroke-linecap: round"/>
    <path d="M 418.950857 395.50978 
L 418.635449 389.256739 
L 423.827126 392.756238 
" clip-path="url(#p99261fc694)" style="fill: none; stroke: #000000; stroke-width: 1.4; stroke-linecap: round"/>
   </g>
   <g id="patch_34">
    <path d="M 496.688849 668.81626 
Q 457.0566 528.446124 417.849657 389.582347 
" clip-path="url(#p99261fc694)" style="fill: none; stroke: #000000; stroke-width: 1.4; stroke-linecap: round"/>
    <path d="M 416.676626 395.732469 
L 417.849657 389.582347 
L 422.065936 394.210846 
" clip-path="url(#p99261fc694)" style="fill: none; stroke: #000000; stroke-width: 1.4; stroke-linecap: round"/>
   </g>
   <g id="patch_35">
    <path d="M 1126.656 444.36 
L 1340.928 444.36 
L 1340.928 327.936 
L 1126.656 327.936 
L 1126.656 444.36 
z
" clip-path="url(#p99261fc694)" style="fill: none; stroke: #000000; stroke-linejoin: miter"/>
   </g>
   <g id="text_1">
    <!-- NWW Pipeline v2 (Landscape v3 - clean grid) -->
    <g style="fill: #333333" transform="translate(282.96 159.768) scale(0.18 -0.18)">
     <defs>
      <path id="DejaVuSans-Bold-4e" d="M 588 4666 
L 1931 4666 
L 3628 1466 
L 3628 4666 
L 4769 4666 
L 4769 0 
L 3425 0 
L 1728 3200 
L 1728 0 
L 588 0 
L 588 4666 
z
" transform="scale(0.015625)"/>
      <path id="DejaVuSans-Bold-57" d="M 191 4666 
L 1344 4666 
L 2150 1275 
L 2950 4666 
L 4109 4666 
L 4909 1275 
L 5716 4666 
L 6859 4666 
L 5759 0 
L 4372 0 
L 3525 3547 
L 2688 0 
L 1300 0 
L 191 4666 
z
" transform="scale(0.015625)"/>
      <path id="DejaVuSans-Bold-20" transform="scale(0.015625)"/>
      <path id="DejaVuSans-Bold-50" d="M 588 4666 
L 2584 4666 
Q 3475 4666 3951 4270 
Q 4428 3875 4428 3144 
Q 4428 2409 3951 2014 
Q 3475 1619 2584 1619 
L 1791 1619 
L 1791 0 
L 588 0 
L 588 4666 
z
M 1791 3794 
L 1791 2491 
L 2456 2491 
Q 2806 2491 2997 2661 
Q 3188 2831 3188 3144 
Q 3188 3456 2997 3625 
Q 2806 3794 2456 3794 
L 1791 3794 
z
" transform="scale(0.015625)"/>
      <path id="DejaVuSans-Bold-69" d="M 538 3500 
L 1656 3500 
L 1656 0 
L 538 0 
L 538 3500 
z
M 538 4863 
L 1656 4863 
L 1656 3950 
L 538 3950 
L 538 4863 
z
" transform="scale(0.015625)"/>
      <path id="DejaVuSans-Bold-70" d="M 1656 506 
L 1656 -1331 
L 538 -1331 
L 538 3500 
L 1656 3500 
L 1656 2988 
Q 1888 3294 2169 3439 
Q 2450 3584 2816 3584 
Q 3463 3584 3878 3070 
Q 4294 2556 4294 1747 
Q 4294 938 3878 423 
Q 3463 -91 2816 -91 
Q 2450 -91 2169 54 
Q 1888 200 1656 506 
z
M 2400 2772 
Q 2041 2772 1848 2508 
Q 1656 2244 1656 1747 
Q 1656 1250 1848 986 
Q 2041 722 2400 722 
Q 2759 722 2948 984 
Q 3138 1247 3138 1747 
Q 3138 2247 2948 2509 
Q 2759 2772 2400 2772 
z
" transform="scale(0.015625)"/>
      <path id="DejaVuSans-Bold-65" d="M 4031 1759 
L 4031 1441 
L 1416 1441 
Q 1456 1047 1700 850 
Q 1944 653 2381 653 
Q 2734 653 3104 758 
Q 3475 863 3866 1075 
L 3866 213 
Q 3469 63 3072 -14 
Q 2675 -91 2278 -91 
Q 1328 -91 801 392 
Q 275 875 275 1747 
Q 275 2603 792 3093 
Q 1309 3584 2216 3584 
Q 3041 3584 3536 3087 
Q 4031 2591 4031 1759 
z
M 2881 2131 
Q 2881 2450 2695 2645 
Q 2509 2841 2209 2841 
Q 1884 2841 1681 2658 
Q 1478 2475 1428 2131 
L 2881 2131 
z
" transform="scale(0.015625)"/>
      <path id="DejaVuSans-Bold-6c" d="M 538 4863 
L 1656 4863 
L 1656 0 
L 538 0 
L 538 4863 
z
" transform="scale(0.015625)"/>
      <path id="DejaVuSans-Bold-6e" d="M 4056 2131 
L 4056 0 
L 2931 0 
L 2931 347 
L 2931 1631 
Q 2931 2084 2911 2256 
Q 2891 2428 2841 2509 
Q 2775 2619 2662 2680 
Q 2550 2741 2406 2741 
Q 2056 2741 1856 2470 
Q 1656 2200 1656 1722 
L 1656 0 
L 538 0 
L 538 3500 
L 1656 3500 
L 1656 2988 
Q 1909 3294 2193 3439 
Q 2478 3584 2822 3584 
Q 3428 3584 3742 3212 
Q 4056 2841 4056 2131 
z
" transform="scale(0.015625)"/>
      <path id="DejaVuSans-Bold-76" d="M 97 3500 
L 1216 3500 
L 2088 1081 
L 2956 3500 
L 4078 3500 
L 2700 0 
L 1472 0 
L 97 3500 
z
" transform="scale(0.015625)"/>
      <path id="DejaVuSans-Bold-32" d="M 1844 884 
L 3897 884 
L 3897 0 
L 506 0 
L 506 884 
L 2209 2388 
Q 2438 2594 2547 2791 
Q 2656 2988 2656 3200 
Q 2656 3528 2436 3728 
Q 2216 3928 1850 3928 
Q 1569 3928 1234 3808 
Q 900 3688 519 3450 
L 519 4475 
Q 925 4609 1322 4679 
Q 1719 4750 2100 4750 
Q 2938 4750 3402 4381 
Q 3866 4013 3866 3353 
Q 3866 2972 3669 2642 
Q 3472 2313 2841 1759 
L 1844 884 
z
" transform="scale(0.015625)"/>
      <path id="DejaVuSans-Bold-28" d="M 2413 -844 
L 1484 -844 
Q 1006 -72 778 623 
Q 550 1319 550 2003 
Q 550 2688 779 3389 
Q 1009 4091 1484 4856 
L 2413 4856 
Q 2013 4116 1813 3408 
Q 1613 2700 1613 2009 
Q 1613 1319 1811 609 
Q 2009 -100 2413 -844 
z
" transform="scale(0.015625)"/>
      <path id="DejaVuSans-Bold-4c" d="M 588 4666 
L 1791 4666 
L 1791 909 
L 3903 909 
L 3903 0 
L 588 0 
L 588 4666 
z
" transform="scale(0.015625)"/>
      <path id="DejaVuSans-Bold-61" d="M 2106 1575 
Q 1756 1575 1579 1456 
Q 1403 1338 1403 1106 
Q 1403 894 1545 773 
Q 1688 653 1941 653 
Q 2256 653 2472 879 
Q 2688 1106 2688 1447 
L 2688 1575 
L 2106 1575 
z
M 3816 1997 
L 3816 0 
L 2688 0 
L 2688 519 
Q 2463 200 2181 54 
Q 1900 -91 1497 -91 
Q 953 -91 614 226 
Q 275 544 275 1050 
Q 275 1666 698 1953 
Q 1122 2241 2028 2241 
L 2688 2241 
L 2688 2328 
Q 2688 2594 2478 2717 
Q 2269 2841 1825 2841 
Q 1466 2841 1156 2769 
Q 847 2697 581 2553 
L 581 3406 
Q 941 3494 1303 3539 
Q 1666 3584 2028 3584 
Q 2975 3584 3395 3211 
Q 3816 2838 3816 1997 
z
" transform="scale(0.015625)"/>
      <path id="DejaVuSans-Bold-64" d="M 2919 2988 
L 2919 4863 
L 4044 4863 
L 4044 0 
L 2919 0 
L 2919 506 
Q 2688 197 2409 53 
Q 2131 -91 1766 -91 
Q 1119 -91 703 423 
Q 288 938 288 1747 
Q 288 2556 703 3070 
Q 1119 3584 1766 3584 
Q 2128 3584 2408 3439 
Q 2688 3294 2919 2988 
z
M 2181 722 
Q 2541 722 2730 984 
Q 2919 1247 2919 1747 
Q 2919 2247 2730 2509 
Q 2541 2772 2181 2772 
Q 1825 2772 1636 2509 
Q 1447 2247 1447 1747 
Q 1447 1247 1636 984 
Q 1825 722 2181 722 
z
" transform="scale(0.015625)"/>
      <path id="DejaVuSans-Bold-73" d="M 3272 3391 
L 3272 2541 
Q 2913 2691 2578 2766 
Q 2244 2841 1947 2841 
Q 1628 2841 1473 2761 
Q 1319 2681 1319 2516 
Q 1319 2381 1436 2309 
Q 1553 2238 1856 2203 
L 2053 2175 
Q 2913 2066 3209 1816 
Q 3506 1566 3506 1031 
Q 3506 472 3093 190 
Q 2681 -91 1863 -91 
Q 1516 -91 1145 -36 
Q 775 19 384 128 
L 384 978 
Q 719 816 1070 734 
Q 1422 653 1784 653 
Q 2113 653 2278 743 
Q 2444 834 2444 1013 
Q 2444 1163 2330 1236 
Q 2216 1309 1875 1350 
L 1678 1375 
Q 931 1469 631 1722 
Q 331 1975 331 2491 
Q 331 3047 712 3315 
Q 1094 3584 1881 3584 
Q 2191 3584 2531 3537 
Q 2872 3491 3272 3391 
z
" transform="scale(0.015625)"/>
      <path id="DejaVuSans-Bold-63" d="M 3366 3391 
L 3366 2478 
Q 3138 2634 2908 2709 
Q 2678 2784 2431 2784 
Q 1963 2784 1702 2511 
Q 1441 2238 1441 1747 
Q 1441 1256 1702 982 
Q 1963 709 2431 709 
Q 2694 709 2930 787 
Q 3166 866 3366 1019 
L 3366 103 
Q 3103 6 2833 -42 
Q 2563 -91 2291 -91 
Q 1344 -91 809 395 
Q 275 881 275 1747 
Q 275 2613 809 3098 
Q 1344 3584 2291 3584 
Q 2566 3584 2833 3536 
Q 3100 3488 3366 3391 
z
" transform="scale(0.015625)"/>
      <path id="DejaVuSans-Bold-33" d="M 2981 2516 
Q 3453 2394 3698 2092 
Q 3944 1791 3944 1325 
Q 3944 631 3412 270 
Q 2881 -91 1863 -91 
Q 1503 -91 1142 -33 
Q 781 25 428 141 
L 428 1069 
Q 766 900 1098 814 
Q 1431 728 1753 728 
Q 2231 728 2486 893 
Q 2741 1059 2741 1369 
Q 2741 1688 2480 1852 
Q 2219 2016 1709 2016 
L 1228 2016 
L 1228 2791 
L 1734 2791 
Q 2188 2791 2409 2933 
Q 2631 3075 2631 3366 
Q 2631 3634 2415 3781 
Q 2200 3928 1806 3928 
Q 1516 3928 1219 3862 
Q 922 3797 628 3669 
L 628 4550 
Q 984 4650 1334 4700 
Q 1684 4750 2022 4750 
Q 2931 4750 3382 4451 
Q 3834 4153 3834 3553 
Q 3834 3144 3618 2883 
Q 3403 2622 2981 2516 
z
" transform="scale(0.015625)"/>
      <path id="DejaVuSans-Bold-2d" d="M 347 2297 
L 2309 2297 
L 2309 1388 
L 347 1388 
L 347 2297 
z
" transform="scale(0.015625)"/>
      <path id="DejaVuSans-Bold-67" d="M 2919 594 
Q 2688 288 2409 144 
Q 2131 0 1766 0 
Q 1125 0 706 504 
Q 288 1009 288 1791 
Q 288 2575 706 3076 
Q 1125 3578 1766 3578 
Q 2131 3578 2409 3434 
Q 2688 3291 2919 2981 
L 2919 3500 
L 4044 3500 
L 4044 353 
Q 4044 -491 3511 -936 
Q 2978 -1381 1966 -1381 
Q 1638 -1381 1331 -1331 
Q 1025 -1281 716 -1178 
L 716 -306 
Q 1009 -475 1290 -558 
Q 1572 -641 1856 -641 
Q 2406 -641 2662 -400 
Q 2919 -159 2919 353 
L 2919 594 
z
M 2181 2772 
Q 1834 2772 1640 2515 
Q 1447 2259 1447 1791 
Q 1447 1309 1634 1061 
Q 1822 813 2181 813 
Q 2531 813 2725 1069 
Q 2919 1325 2919 1791 
Q 2919 2259 2725 2515 
Q 2531 2772 2181 2772 
z
" transform="scale(0.015625)"/>
      <path id="DejaVuSans-Bold-72" d="M 3138 2547 
Q 2991 2616 2845 2648 
Q 2700 2681 2553 2681 
Q 2122 2681 1889 2404 
Q 1656 2128 1656 1613 
L 1656 0 
L 538 0 
L 538 3500 
L 1656 3500 
L 1656 2925 
Q 1872 3269 2151 3426 
Q 2431 3584 2822 3584 
Q 2878 3584 2943 3579 
Q 3009 3575 3134 3559 
L 3138 2547 
z
" transform="scale(0.015625)"/>
      <path id="DejaVuSans-Bold-29" d="M 513 -844 
Q 913 -100 1113 609 
Q 1313 1319 1313 2009 
Q 1313 2700 1113 3408 
Q 913 4116 513 4856 
L 1441 4856 
Q 1916 4091 2145 3389 
Q 2375 2688 2375 2003 
Q 2375 1319 2147 623 
Q 1919 -72 1441 -844 
L 513 -844 
z
" transform="scale(0.015625)"/>
     </defs>
     <use xlink:href="#DejaVuSans-Bold-4e"/>
     <use xlink:href="#DejaVuSans-Bold-57" x="83.691406"/>
     <use xlink:href="#DejaVuSans-Bold-57" x="193.994141"/>
     <use xlink:href="#DejaVuSans-Bold-20" x="304.296875"/>
     <use xlink:href="#DejaVuSans-Bold-50" x="339.111328"/>
     <use xlink:href="#DejaVuSans-Bold-69" x="412.402344"/>
     <use xlink:href="#DejaVuSans-Bold-70" x="446.679688"/>
     <use xlink:href="#DejaVuSans-Bold-65" x="518.261719"/>
     <use xlink:href="#DejaVuSans-Bold-6c" x="586.083984"/>
     <use xlink:href="#DejaVuSans-Bold-69" x="620.361328"/>
     <use xlink:href="#DejaVuSans-Bold-6e" x="654.638672"/>
     <use xlink:href="#DejaVuSans-Bold-65" x="725.830078"/>
     <use xlink:href="#DejaVuSans-Bold-20" x="793.652344"/>
     <use xlink:href="#DejaVuSans-Bold-76" x="828.466797"/>
     <use xlink:href="#DejaVuSans-Bold-32" x="893.652344"/>
     <use xlink:href="#DejaVuSans-Bold-20" x="963.232422"/>
     <use xlink:href="#DejaVuSans-Bold-28" x="998.046875"/>
     <use xlink:href="#DejaVuSans-Bold-4c" x="1043.75"/>
     <use xlink:href="#DejaVuSans-Bold-61" x="1107.470703"/>
     <use xlink:href="#DejaVuSans-Bold-6e" x="1174.951172"/>
     <use xlink:href="#DejaVuSans-Bold-64" x="1246.142578"/>
     <use xlink:href="#DejaVuSans-Bold-73" x="1317.724609"/>
     <use xlink:href="#DejaVuSans-Bold-63" x="1377.246094"/>
     <use xlink:href="#DejaVuSans-Bold-61" x="1436.523438"/>
     <use xlink:href="#DejaVuSans-Bold-70" x="1504.003906"/>
     <use xlink:href="#DejaVuSans-Bold-65" x="1575.585938"/>
     <use xlink:href="#DejaVuSans-Bold-20" x="1643.408203"/>
     <use xlink:href="#DejaVuSans-Bold-76" x="1678.222656"/>
     <use xlink:href="#DejaVuSans-Bold-33" x="1743.408203"/>
     <use xlink:href="#DejaVuSans-Bold-20" x="1812.988281"/>
     <use xlink:href="#DejaVuSans-Bold-2d" x="1847.802734"/>
     <use xlink:href="#DejaVuSans-Bold-20" x="1889.306641"/>
     <use xlink:href="#DejaVuSans-Bold-63" x="1924.121094"/>
     <use xlink:href="#DejaVuSans-Bold-6c" x="1983.398438"/>
     <use xlink:href="#DejaVuSans-Bold-65" x="2017.675781"/>
     <use xlink:href="#DejaVuSans-Bold-61" x="2085.498047"/>
     <use xlink:href="#DejaVuSans-Bold-6e" x="2152.978516"/>
     <use xlink:href="#DejaVuSans-Bold-20" x="2224.169922"/>
     <use xlink:href="#DejaVuSans-Bold-67" x="2258.984375"/>
     <use xlink:href="#DejaVuSans-Bold-72" x="2330.566406"/>
     <use xlink:href="#DejaVuSans-Bold-69" x="2379.882812"/>
     <use xlink:href="#DejaVuSans-Bold-64" x="2414.160156"/>
     <use xlink:href="#DejaVuSans-Bold-29" x="2485.742188"/>
    </g>
   </g>
   <g id="text_2">
    <!-- M1 Collect -->
    <g style="fill: #333333" transform="translate(160.396859 246.887313) scale(0.11 -0.11)">
     <defs>
      <path id="DejaVuSans-4d" d="M 628 4666 
L 1569 4666 
L 2759 1491 
L 3956 4666 
L 4897 4666 
L 4897 0 
L 4281 0 
L 4281 4097 
L 3078 897 
L 2444 897 
L 1241 4097 
L 1241 0 
L 628 0 
L 628 4666 
z
" transform="scale(0.015625)"/>
      <path id="DejaVuSans-31" d="M 794 531 
L 1825 531 
L 1825 4091 
L 703 3866 
L 703 4441 
L 1819 4666 
L 2450 4666 
L 2450 531 
L 3481 531 
L 3481 0 
L 794 0 
L 794 531 
z
" transform="scale(0.015625)"/>
      <path id="DejaVuSans-20" transform="scale(0.015625)"/>
      <path id="DejaVuSans-43" d="M 4122 4306 
L 4122 3641 
Q 3803 3938 3442 4084 
Q 3081 4231 2675 4231 
Q 1875 4231 1450 3742 
Q 1025 3253 1025 2328 
Q 1025 1406 1450 917 
Q 1875 428 2675 428 
Q 3081 428 3442 575 
Q 3803 722 4122 1019 
L 4122 359 
Q 3791 134 3420 21 
Q 3050 -91 2638 -91 
Q 1578 -91 968 557 
Q 359 1206 359 2328 
Q 359 3453 968 4101 
Q 1578 4750 2638 4750 
Q 3056 4750 3426 4639 
Q 3797 4528 4122 4306 
z
" transform="scale(0.015625)"/>
      <path id="DejaVuSans-6f" d="M 1959 3097 
Q 1497 3097 1228 2736 
Q 959 2375 959 1747 
Q 959 1119 1226 758 
Q 1494 397 1959 397 
Q 2419 397 2687 759 
Q 2956 1122 2956 1747 
Q 2956 2369 2687 2733 
Q 2419 3097 1959 3097 
z
M 1959 3584 
Q 2709 3584 3137 3096 
Q 3566 2609 3566 1747 
Q 3566 888 3137 398 
Q 2709 -91 1959 -91 
Q 1206 -91 779 398 
Q 353 888 353 1747 
Q 353 2609 779 3096 
Q 1206 3584 1959 3584 
z
" transform="scale(0.015625)"/>
      <path id="DejaVuSans-6c" d="M 603 4863 
L 1178 4863 
L 1178 0 
L 603 0 
L 603 4863 
z
" transform="scale(0.015625)"/>
      <path id="DejaVuSans-65" d="M 3597 1894 
L 3597 1613 
L 953 1613 
Q 991 1019 1311 708 
Q 1631 397 2203 397 
Q 2534 397 2845 478 
Q 3156 559 3463 722 
L 3463 178 
Q 3153 47 2828 -22 
Q 2503 -91 2169 -91 
Q 1331 -91 842 396 
Q 353 884 353 1716 
Q 353 2575 817 3079 
Q 1281 3584 2069 3584 
Q 2775 3584 3186 3129 
Q 3597 2675 3597 1894 
z
M 3022 2063 
Q 3016 2534 2758 2815 
Q 2500 3097 2075 3097 
Q 1594 3097 1305 2825 
Q 1016 2553 972 2059 
L 3022 2063 
z
" transform="scale(0.015625)"/>
      <path id="DejaVuSans-63" d="M 3122 3366 
L 3122 2828 
Q 2878 2963 2633 3030 
Q 2388 3097 2138 3097 
Q 1578 3097 1268 2742 
Q 959 2388 959 1747 
Q 959 1106 1268 751 
Q 1578 397 2138 397 
Q 2388 397 2633 464 
Q 2878 531 3122 666 
L 3122 134 
Q 2881 22 2623 -34 
Q 2366 -91 2075 -91 
Q 1284 -91 818 406 
Q 353 903 353 1747 
Q 353 2603 823 3093 
Q 1294 3584 2113 3584 
Q 2378 3584 2631 3529 
Q 2884 3475 3122 3366 
z
" transform="scale(0.015625)"/>
      <path id="DejaVuSans-74" d="M 1172 4494 
L 1172 3500 
L 2356 3500 
L 2356 3053 
L 1172 3053 
L 1172 1153 
Q 1172 725 1289 603 
Q 1406 481 1766 481 
L 2356 481 
L 2356 0 
L 1766 0 
Q 1100 0 847 248 
Q 594 497 594 1153 
L 594 3053 
L 172 3053 
L 172 3500 
L 594 3500 
L 594 4494 
L 1172 4494 
z
" transform="scale(0.015625)"/>
     </defs>
     <use xlink:href="#DejaVuSans-4d"/>
     <use xlink:href="#DejaVuSans-31" x="86.279297"/>
     <use xlink:href="#DejaVuSans-20" x="149.902344"/>
     <use xlink:href="#DejaVuSans-43" x="181.689453"/>
     <use xlink:href="#DejaVuSans-6f" x="251.513672"/>
     <use xlink:href="#DejaVuSans-6c" x="312.695312"/>
     <use xlink:href="#DejaVuSans-6c" x="340.478516"/>
     <use xlink:href="#DejaVuSans-65" x="368.261719"/>
     <use xlink:href="#DejaVuSans-63" x="429.785156"/>
     <use xlink:href="#DejaVuSans-74" x="484.765625"/>
    </g>
   </g>
   <g id="text_3">
    <!-- M2 Preprocess -->
    <g style="fill: #333333" transform="translate(377.012734 246.887313) scale(0.11 -0.11)">
     <defs>
      <path id="DejaVuSans-32" d="M 1228 531 
L 3431 531 
L 3431 0 
L 469 0 
L 469 531 
Q 828 903 1448 1529 
Q 2069 2156 2228 2338 
Q 2531 2678 2651 2914 
Q 2772 3150 2772 3378 
Q 2772 3750 2511 3984 
Q 2250 4219 1831 4219 
Q 1534 4219 1204 4116 
Q 875 4013 500 3803 
L 500 4441 
Q 881 4594 1212 4672 
Q 1544 4750 1819 4750 
Q 2544 4750 2975 4387 
Q 3406 4025 3406 3419 
Q 3406 3131 3298 2873 
Q 3191 2616 2906 2266 
Q 2828 2175 2409 1742 
Q 1991 1309 1228 531 
z
" transform="scale(0.015625)"/>
      <path id="DejaVuSans-50" d="M 1259 4147 
L 1259 2394 
L 2053 2394 
Q 2494 2394 2734 2622 
Q 2975 2850 2975 3272 
Q 2975 3691 2734 3919 
Q 2494 4147 2053 4147 
L 1259 4147 
z
M 628 4666 
L 2053 4666 
Q 2838 4666 3239 4311 
Q 3641 3956 3641 3272 
Q 3641 2581 3239 2228 
Q 2838 1875 2053 1875 
L 1259 1875 
L 1259 0 
L 628 0 
L 628 4666 
z
" transform="scale(0.015625)"/>
      <path id="DejaVuSans-72" d="M 2631 2963 
Q 2534 3019 2420 3045 
Q 2306 3072 2169 3072 
Q 1681 3072 1420 2755 
Q 1159 2438 1159 1844 
L 1159 0 
L 581 0 
L 581 3500 
L 1159 3500 
L 1159 2956 
Q 1341 3275 1631 3429 
Q 1922 3584 2338 3584 
Q 2397 3584 2469 3576 
Q 2541 3569 2628 3553 
L 2631 2963 
z
" transform="scale(0.015625)"/>
      <path id="DejaVuSans-70" d="M 1159 525 
L 1159 -1331 
L 581 -1331 
L 581 3500 
L 1159 3500 
L 1159 2969 
Q 1341 3281 1617 3432 
Q 1894 3584 2278 3584 
Q 2916 3584 3314 3078 
Q 3713 2572 3713 1747 
Q 3713 922 3314 415 
Q 2916 -91 2278 -91 
Q 1894 -91 1617 61 
Q 1341 213 1159 525 
z
M 3116 1747 
Q 3116 2381 2855 2742 
Q 2594 3103 2138 3103 
Q 1681 3103 1420 2742 
Q 1159 2381 1159 1747 
Q 1159 1113 1420 752 
Q 1681 391 2138 391 
Q 2594 391 2855 752 
Q 3116 1113 3116 1747 
z
" transform="scale(0.015625)"/>
      <path id="DejaVuSans-73" d="M 2834 3397 
L 2834 2853 
Q 2591 2978 2328 3040 
Q 2066 3103 1784 3103 
Q 1356 3103 1142 2972 
Q 928 2841 928 2578 
Q 928 2378 1081 2264 
Q 1234 2150 1697 2047 
L 1894 2003 
Q 2506 1872 2764 1633 
Q 3022 1394 3022 966 
Q 3022 478 2636 193 
Q 2250 -91 1575 -91 
Q 1294 -91 989 -36 
Q 684 19 347 128 
L 347 722 
Q 666 556 975 473 
Q 1284 391 1588 391 
Q 1994 391 2212 530 
Q 2431 669 2431 922 
Q 2431 1156 2273 1281 
Q 2116 1406 1581 1522 
L 1381 1569 
Q 847 1681 609 1914 
Q 372 2147 372 2553 
Q 372 3047 722 3315 
Q 1072 3584 1716 3584 
Q 2034 3584 2315 3537 
Q 2597 3491 2834 3397 
z
" transform="scale(0.015625)"/>
     </defs>
     <use xlink:href="#DejaVuSans-4d"/>
     <use xlink:href="#DejaVuSans-32" x="86.279297"/>
     <use xlink:href="#DejaVuSans-20" x="149.902344"/>
     <use xlink:href="#DejaVuSans-50" x="181.689453"/>
     <use xlink:href="#DejaVuSans-72" x="240.242188"/>
     <use xlink:href="#DejaVuSans-65" x="279.105469"/>
     <use xlink:href="#DejaVuSans-70" x="340.628906"/>
     <use xlink:href="#DejaVuSans-72" x="404.105469"/>
     <use xlink:href="#DejaVuSans-6f" x="442.96875"/>
     <use xlink:href="#DejaVuSans-63" x="504.150391"/>
     <use xlink:href="#DejaVuSans-65" x="559.130859"/>
     <use xlink:href="#DejaVuSans-73" x="620.654297"/>
     <use xlink:href="#DejaVuSans-73" x="672.753906"/>
    </g>
   </g>
   <g id="text_4">
    <!-- M3 Entity Resolution -->
    <g style="fill: #333333" transform="translate(588.009156 246.887313) scale(0.11 -0.11)">
     <defs>
      <path id="DejaVuSans-33" d="M 2597 2516 
Q 3050 2419 3304 2112 
Q 3559 1806 3559 1356 
Q 3559 666 3084 287 
Q 2609 -91 1734 -91 
Q 1441 -91 1130 -33 
Q 819 25 488 141 
L 488 750 
Q 750 597 1062 519 
Q 1375 441 1716 441 
Q 2309 441 2620 675 
Q 2931 909 2931 1356 
Q 2931 1769 2642 2001 
Q 2353 2234 1838 2234 
L 1294 2234 
L 1294 2753 
L 1863 2753 
Q 2328 2753 2575 2939 
Q 2822 3125 2822 3475 
Q 2822 3834 2567 4026 
Q 2313 4219 1838 4219 
Q 1578 4219 1281 4162 
Q 984 4106 628 3988 
L 628 4550 
Q 988 4650 1302 4700 
Q 1616 4750 1894 4750 
Q 2613 4750 3031 4423 
Q 3450 4097 3450 3541 
Q 3450 3153 3228 2886 
Q 3006 2619 2597 2516 
z
" transform="scale(0.015625)"/>
      <path id="DejaVuSans-45" d="M 628 4666 
L 3578 4666 
L 3578 4134 
L 1259 4134 
L 1259 2753 
L 3481 2753 
L 3481 2222 
L 1259 2222 
L 1259 531 
L 3634 531 
L 3634 0 
L 628 0 
L 628 4666 
z
" transform="scale(0.015625)"/>
      <path id="DejaVuSans-6e" d="M 3513 2113 
L 3513 0 
L 2938 0 
L 2938 2094 
Q 2938 2591 2744 2837 
Q 2550 3084 2163 3084 
Q 1697 3084 1428 2787 
Q 1159 2491 1159 1978 
L 1159 0 
L 581 0 
L 581 3500 
L 1159 3500 
L 1159 2956 
Q 1366 3272 1645 3428 
Q 1925 3584 2291 3584 
Q 2894 3584 3203 3211 
Q 3513 2838 3513 2113 
z
" transform="scale(0.015625)"/>
      <path id="DejaVuSans-69" d="M 603 3500 
L 1178 3500 
L 1178 0 
L 603 0 
L 603 3500 
z
M 603 4863 
L 1178 4863 
L 1178 4134 
L 603 4134 
L 603 4863 
z
" transform="scale(0.015625)"/>
      <path id="DejaVuSans-79" d="M 2059 -325 
Q 1816 -950 1584 -1140 
Q 1353 -1331 966 -1331 
L 506 -1331 
L 506 -850 
L 844 -850 
Q 1081 -850 1212 -737 
Q 1344 -625 1503 -206 
L 1606 56 
L 191 3500 
L 800 3500 
L 1894 763 
L 2988 3500 
L 3597 3500 
L 2059 -325 
z
" transform="scale(0.015625)"/>
      <path id="DejaVuSans-52" d="M 2841 2188 
Q 3044 2119 3236 1894 
Q 3428 1669 3622 1275 
L 4263 0 
L 3584 0 
L 2988 1197 
Q 2756 1666 2539 1819 
Q 2322 1972 1947 1972 
L 1259 1972 
L 1259 0 
L 628 0 
L 628 4666 
L 2053 4666 
Q 2853 4666 3247 4331 
Q 3641 3997 3641 3322 
Q 3641 2881 3436 2590 
Q 3231 2300 2841 2188 
z
M 1259 4147 
L 1259 2491 
L 2053 2491 
Q 2509 2491 2742 2702 
Q 2975 2913 2975 3322 
Q 2975 3731 2742 3939 
Q 2509 4147 2053 4147 
L 1259 4147 
z
" transform="scale(0.015625)"/>
      <path id="DejaVuSans-75" d="M 544 1381 
L 544 3500 
L 1119 3500 
L 1119 1403 
Q 1119 906 1312 657 
Q 1506 409 1894 409 
Q 2359 409 2629 706 
Q 2900 1003 2900 1516 
L 2900 3500 
L 3475 3500 
L 3475 0 
L 2900 0 
L 2900 538 
Q 2691 219 2414 64 
Q 2138 -91 1772 -91 
Q 1169 -91 856 284 
Q 544 659 544 1381 
z
M 1991 3584 
L 1991 3584 
z
" transform="scale(0.015625)"/>
     </defs>
     <use xlink:href="#DejaVuSans-4d"/>
     <use xlink:href="#DejaVuSans-33" x="86.279297"/>
     <use xlink:href="#DejaVuSans-20" x="149.902344"/>
     <use xlink:href="#DejaVuSans-45" x="181.689453"/>
     <use xlink:href="#DejaVuSans-6e" x="244.873047"/>
     <use xlink:href="#DejaVuSans-74" x="308.251953"/>
     <use xlink:href="#DejaVuSans-69" x="347.460938"/>
     <use xlink:href="#DejaVuSans-74" x="375.244141"/>
     <use xlink:href="#DejaVuSans-79" x="414.453125"/>
     <use xlink:href="#DejaVuSans-20" x="473.632812"/>
     <use xlink:href="#DejaVuSans-52" x="505.419922"/>
     <use xlink:href="#DejaVuSans-65" x="570.402344"/>
     <use xlink:href="#DejaVuSans-73" x="631.925781"/>
     <use xlink:href="#DejaVuSans-6f" x="684.025391"/>
     <use xlink:href="#DejaVuSans-6c" x="745.207031"/>
     <use xlink:href="#DejaVuSans-75" x="772.990234"/>
     <use xlink:href="#DejaVuSans-74" x="836.369141"/>
     <use xlink:href="#DejaVuSans-69" x="875.578125"/>
     <use xlink:href="#DejaVuSans-6f" x="903.361328"/>
     <use xlink:href="#DejaVuSans-6e" x="964.542969"/>
    </g>
   </g>
   <g id="text_5">
    <!-- M4 Event Builder -->
    <g style="fill: #333333" transform="translate(825.258625 246.887313) scale(0.11 -0.11)">
     <defs>
      <path id="DejaVuSans-34" d="M 2419 4116 
L 825 1625 
L 2419 1625 
L 2419 4116 
z
M 2253 4666 
L 3047 4666 
L 3047 1625 
L 3713 1625 
L 3713 1100 
L 3047 1100 
L 3047 0 
L 2419 0 
L 2419 1100 
L 313 1100 
L 313 1709 
L 2253 4666 
z
" transform="scale(0.015625)"/>
      <path id="DejaVuSans-76" d="M 191 3500 
L 800 3500 
L 1894 563 
L 2988 3500 
L 3597 3500 
L 2284 0 
L 1503 0 
L 191 3500 
z
" transform="scale(0.015625)"/>
      <path id="DejaVuSans-42" d="M 1259 2228 
L 1259 519 
L 2272 519 
Q 2781 519 3026 730 
Q 3272 941 3272 1375 
Q 3272 1813 3026 2020 
Q 2781 2228 2272 2228 
L 1259 2228 
z
M 1259 4147 
L 1259 2741 
L 2194 2741 
Q 2656 2741 2882 2914 
Q 3109 3088 3109 3444 
Q 3109 3797 2882 3972 
Q 2656 4147 2194 4147 
L 1259 4147 
z
M 628 4666 
L 2241 4666 
Q 2963 4666 3353 4366 
Q 3744 4066 3744 3513 
Q 3744 3084 3544 2831 
Q 3344 2578 2956 2516 
Q 3422 2416 3680 2098 
Q 3938 1781 3938 1306 
Q 3938 681 3513 340 
Q 3088 0 2303 0 
L 628 0 
L 628 4666 
z
" transform="scale(0.015625)"/>
      <path id="DejaVuSans-64" d="M 2906 2969 
L 2906 4863 
L 3481 4863 
L 3481 0 
L 2906 0 
L 2906 525 
Q 2725 213 2448 61 
Q 2172 -91 1784 -91 
Q 1150 -91 751 415 
Q 353 922 353 1747 
Q 353 2572 751 3078 
Q 1150 3584 1784 3584 
Q 2172 3584 2448 3432 
Q 2725 3281 2906 2969 
z
M 947 1747 
Q 947 1113 1208 752 
Q 1469 391 1925 391 
Q 2381 391 2643 752 
Q 2906 1113 2906 1747 
Q 2906 2381 2643 2742 
Q 2381 3103 1925 3103 
Q 1469 3103 1208 2742 
Q 947 2381 947 1747 
z
" transform="scale(0.015625)"/>
     </defs>
     <use xlink:href="#DejaVuSans-4d"/>
     <use xlink:href="#DejaVuSans-34" x="86.279297"/>
     <use xlink:href="#DejaVuSans-20" x="149.902344"/>
     <use xlink:href="#DejaVuSans-45" x="181.689453"/>
     <use xlink:href="#DejaVuSans-76" x="244.873047"/>
     <use xlink:href="#DejaVuSans-65" x="304.052734"/>
     <use xlink:href="#DejaVuSans-6e" x="365.576172"/>
     <use xlink:href="#DejaVuSans-74" x="428.955078"/>
     <use xlink:href="#DejaVuSans-20" x="468.164062"/>
     <use xlink:href="#DejaVuSans-42" x="499.951172"/>
     <use xlink:href="#DejaVuSans-75" x="568.554688"/>
     <use xlink:href="#DejaVuSans-69" x="631.933594"/>
     <use xlink:href="#DejaVuSans-6c" x="659.716797"/>
     <use xlink:href="#DejaVuSans-64" x="687.5"/>
     <use xlink:href="#DejaVuSans-65" x="750.976562"/>
     <use xlink:href="#DejaVuSans-72" x="812.5"/>
    </g>
   </g>
   <g id="text_6">
    <!-- M5 Evidence Builder -->
    <g style="fill: #333333" transform="translate(1043.650828 246.887313) scale(0.11 -0.11)">
     <defs>
      <path id="DejaVuSans-35" d="M 691 4666 
L 3169 4666 
L 3169 4134 
L 1269 4134 
L 1269 2991 
Q 1406 3038 1543 3061 
Q 1681 3084 1819 3084 
Q 2600 3084 3056 2656 
Q 3513 2228 3513 1497 
Q 3513 744 3044 326 
Q 2575 -91 1722 -91 
Q 1428 -91 1123 -41 
Q 819 9 494 109 
L 494 744 
Q 775 591 1075 516 
Q 1375 441 1709 441 
Q 2250 441 2565 725 
Q 2881 1009 2881 1497 
Q 2881 1984 2565 2268 
Q 2250 2553 1709 2553 
Q 1456 2553 1204 2497 
Q 953 2441 691 2322 
L 691 4666 
z
" transform="scale(0.015625)"/>
     </defs>
     <use xlink:href="#DejaVuSans-4d"/>
     <use xlink:href="#DejaVuSans-35" x="86.279297"/>
     <use xlink:href="#DejaVuSans-20" x="149.902344"/>
     <use xlink:href="#DejaVuSans-45" x="181.689453"/>
     <use xlink:href="#DejaVuSans-76" x="244.873047"/>
     <use xlink:href="#DejaVuSans-69" x="304.052734"/>
     <use xlink:href="#DejaVuSans-64" x="331.835938"/>
     <use xlink:href="#DejaVuSans-65" x="395.3125"/>
     <use xlink:href="#DejaVuSans-6e" x="456.835938"/>
     <use xlink:href="#DejaVuSans-63" x="520.214844"/>
     <use xlink:href="#DejaVuSans-65" x="575.195312"/>
     <use xlink:href="#DejaVuSans-20" x="636.71875"/>
     <use xlink:href="#DejaVuSans-42" x="668.505859"/>
     <use xlink:href="#DejaVuSans-75" x="737.109375"/>
     <use xlink:href="#DejaVuSans-69" x="800.488281"/>
     <use xlink:href="#DejaVuSans-6c" x="828.271484"/>
     <use xlink:href="#DejaVuSans-64" x="856.054688"/>
     <use xlink:href="#DejaVuSans-65" x="919.53125"/>
     <use xlink:href="#DejaVuSans-72" x="981.054688"/>
    </g>
   </g>
   <g id="text_7">
    <!-- M6 Framing (LSL) -->
    <g style="fill: #333333" transform="translate(1279.624125 246.887313) scale(0.11 -0.11)">
     <defs>
      <path id="DejaVuSans-36" d="M 2113 2584 
Q 1688 2584 1439 2293 
Q 1191 2003 1191 1497 
Q 1191 994 1439 701 
Q 1688 409 2113 409 
Q 2538 409 2786 701 
Q 3034 994 3034 1497 
Q 3034 2003 2786 2293 
Q 2538 2584 2113 2584 
z
M 3366 4563 
L 3366 3988 
Q 3128 4100 2886 4159 
Q 2644 4219 2406 4219 
Q 1781 4219 1451 3797 
Q 1122 3375 1075 2522 
Q 1259 2794 1537 2939 
Q 1816 3084 2150 3084 
Q 2853 3084 3261 2657 
Q 3669 2231 3669 1497 
Q 3669 778 3244 343 
Q 2819 -91 2113 -91 
Q 1303 -91 875 529 
Q 447 1150 447 2328 
Q 447 3434 972 4092 
Q 1497 4750 2381 4750 
Q 2619 4750 2861 4703 
Q 3103 4656 3366 4563 
z
" transform="scale(0.015625)"/>
      <path id="DejaVuSans-46" d="M 628 4666 
L 3309 4666 
L 3309 4134 
L 1259 4134 
L 1259 2759 
L 3109 2759 
L 3109 2228 
L 1259 2228 
L 1259 0 
L 628 0 
L 628 4666 
z
" transform="scale(0.015625)"/>
      <path id="DejaVuSans-61" d="M 2194 1759 
Q 1497 1759 1228 1600 
Q 959 1441 959 1056 
Q 959 750 1161 570 
Q 1363 391 1709 391 
Q 2188 391 2477 730 
Q 2766 1069 2766 1631 
L 2766 1759 
L 2194 1759 
z
M 3341 1997 
L 3341 0 
L 2766 0 
L 2766 531 
Q 2569 213 2275 61 
Q 1981 -91 1556 -91 
Q 1019 -91 701 211 
Q 384 513 384 1019 
Q 384 1609 779 1909 
Q 1175 2209 1959 2209 
L 2766 2209 
L 2766 2266 
Q 2766 2663 2505 2880 
Q 2244 3097 1772 3097 
Q 1472 3097 1187 3025 
Q 903 2953 641 2809 
L 641 3341 
Q 956 3463 1253 3523 
Q 1550 3584 1831 3584 
Q 2591 3584 2966 3190 
Q 3341 2797 3341 1997 
z
" transform="scale(0.015625)"/>
      <path id="DejaVuSans-6d" d="M 3328 2828 
Q 3544 3216 3844 3400 
Q 4144 3584 4550 3584 
Q 5097 3584 5394 3201 
Q 5691 2819 5691 2113 
L 5691 0 
L 5113 0 
L 5113 2094 
Q 5113 2597 4934 2840 
Q 4756 3084 4391 3084 
Q 3944 3084 3684 2787 
Q 3425 2491 3425 1978 
L 3425 0 
L 2847 0 
L 2847 2094 
Q 2847 2600 2669 2842 
Q 2491 3084 2119 3084 
Q 1678 3084 1418 2786 
Q 1159 2488 1159 1978 
L 1159 0 
L 581 0 
L 581 3500 
L 1159 3500 
L 1159 2956 
Q 1356 3278 1631 3431 
Q 1906 3584 2284 3584 
Q 2666 3584 2933 3390 
Q 3200 3197 3328 2828 
z
" transform="scale(0.015625)"/>
      <path id="DejaVuSans-67" d="M 2906 1791 
Q 2906 2416 2648 2759 
Q 2391 3103 1925 3103 
Q 1463 3103 1205 2759 
Q 947 2416 947 1791 
Q 947 1169 1205 825 
Q 1463 481 1925 481 
Q 2391 481 2648 825 
Q 2906 1169 2906 1791 
z
M 3481 434 
Q 3481 -459 3084 -895 
Q 2688 -1331 1869 -1331 
Q 1566 -1331 1297 -1286 
Q 1028 -1241 775 -1147 
L 775 -588 
Q 1028 -725 1275 -790 
Q 1522 -856 1778 -856 
Q 2344 -856 2625 -561 
Q 2906 -266 2906 331 
L 2906 616 
Q 2728 306 2450 153 
Q 2172 0 1784 0 
Q 1141 0 747 490 
Q 353 981 353 1791 
Q 353 2603 747 3093 
Q 1141 3584 1784 3584 
Q 2172 3584 2450 3431 
Q 2728 3278 2906 2969 
L 2906 3500 
L 3481 3500 
L 3481 434 
z
" transform="scale(0.015625)"/>
      <path id="DejaVuSans-28" d="M 1984 4856 
Q 1566 4138 1362 3434 
Q 1159 2731 1159 2009 
Q 1159 1288 1364 580 
Q 1569 -128 1984 -844 
L 1484 -844 
Q 1016 -109 783 600 
Q 550 1309 550 2009 
Q 550 2706 781 3412 
Q 1013 4119 1484 4856 
L 1984 4856 
z
" transform="scale(0.015625)"/>
      <path id="DejaVuSans-4c" d="M 628 4666 
L 1259 4666 
L 1259 531 
L 3531 531 
L 3531 0 
L 628 0 
L 628 4666 
z
" transform="scale(0.015625)"/>
      <path id="DejaVuSans-53" d="M 3425 4513 
L 3425 3897 
Q 3066 4069 2747 4153 
Q 2428 4238 2131 4238 
Q 1616 4238 1336 4038 
Q 1056 3838 1056 3469 
Q 1056 3159 1242 3001 
Q 1428 2844 1947 2747 
L 2328 2669 
Q 3034 2534 3370 2195 
Q 3706 1856 3706 1288 
Q 3706 609 3251 259 
Q 2797 -91 1919 -91 
Q 1588 -91 1214 -16 
Q 841 59 441 206 
L 441 856 
Q 825 641 1194 531 
Q 1563 422 1919 422 
Q 2459 422 2753 634 
Q 3047 847 3047 1241 
Q 3047 1584 2836 1778 
Q 2625 1972 2144 2069 
L 1759 2144 
Q 1053 2284 737 2584 
Q 422 2884 422 3419 
Q 422 4038 858 4394 
Q 1294 4750 2059 4750 
Q 2388 4750 2728 4690 
Q 3069 4631 3425 4513 
z
" transform="scale(0.015625)"/>
      <path id="DejaVuSans-29" d="M 513 4856 
L 1013 4856 
Q 1481 4119 1714 3412 
Q 1947 2706 1947 2009 
Q 1947 1309 1714 600 
Q 1481 -109 1013 -844 
L 513 -844 
Q 928 -128 1133 580 
Q 1338 1288 1338 2009 
Q 1338 2731 1133 3434 
Q 928 4138 513 4856 
z
" transform="scale(0.015625)"/>
     </defs>
     <use xlink:href="#DejaVuSans-4d"/>
     <use xlink:href="#DejaVuSans-36" x="86.279297"/>
     <use xlink:href="#DejaVuSans-20" x="149.902344"/>
     <use xlink:href="#DejaVuSans-46" x="181.689453"/>
     <use xlink:href="#DejaVuSans-72" x="231.958984"/>
     <use xlink:href="#DejaVuSans-61" x="273.072266"/>
     <use xlink:href="#DejaVuSans-6d" x="334.351562"/>
     <use xlink:href="#DejaVuSans-69" x="431.763672"/>
     <use xlink:href="#DejaVuSans-6e" x="459.546875"/>
     <use xlink:href="#DejaVuSans-67" x="522.925781"/>
     <use xlink:href="#DejaVuSans-20" x="586.402344"/>
     <use xlink:href="#DejaVuSans-28" x="618.189453"/>
     <use xlink:href="#DejaVuSans-4c" x="657.203125"/>
     <use xlink:href="#DejaVuSans-53" x="712.916016"/>
     <use xlink:href="#DejaVuSans-4c" x="776.392578"/>
     <use xlink:href="#DejaVuSans-29" x="832.105469"/>
    </g>
   </g>
   <g id="text_8">
    <!-- M7 FPD Gate -->
    <g style="fill: #333333" transform="translate(702.660031 389.183313) scale(0.11 -0.11)">
     <defs>
      <path id="DejaVuSans-37" d="M 525 4666 
L 3525 4666 
L 3525 4397 
L 1831 0 
L 1172 0 
L 2766 4134 
L 525 4134 
L 525 4666 
z
" transform="scale(0.015625)"/>
      <path id="DejaVuSans-44" d="M 1259 4147 
L 1259 519 
L 2022 519 
Q 2988 519 3436 956 
Q 3884 1394 3884 2338 
Q 3884 3275 3436 3711 
Q 2988 4147 2022 4147 
L 1259 4147 
z
M 628 4666 
L 1925 4666 
Q 3281 4666 3915 4102 
Q 4550 3538 4550 2338 
Q 4550 1131 3912 565 
Q 3275 0 1925 0 
L 628 0 
L 628 4666 
z
" transform="scale(0.015625)"/>
      <path id="DejaVuSans-47" d="M 3809 666 
L 3809 1919 
L 2778 1919 
L 2778 2438 
L 4434 2438 
L 4434 434 
Q 4069 175 3628 42 
Q 3188 -91 2688 -91 
Q 1594 -91 976 548 
Q 359 1188 359 2328 
Q 359 3472 976 4111 
Q 1594 4750 2688 4750 
Q 3144 4750 3555 4637 
Q 3966 4525 4313 4306 
L 4313 3634 
Q 3963 3931 3569 4081 
Q 3175 4231 2741 4231 
Q 1884 4231 1454 3753 
Q 1025 3275 1025 2328 
Q 1025 1384 1454 906 
Q 1884 428 2741 428 
Q 3075 428 3337 486 
Q 3600 544 3809 666 
z
" transform="scale(0.015625)"/>
     </defs>
     <use xlink:href="#DejaVuSans-4d"/>
     <use xlink:href="#DejaVuSans-37" x="86.279297"/>
     <use xlink:href="#DejaVuSans-20" x="149.902344"/>
     <use xlink:href="#DejaVuSans-46" x="181.689453"/>
     <use xlink:href="#DejaVuSans-50" x="239.208984"/>
     <use xlink:href="#DejaVuSans-44" x="299.511719"/>
     <use xlink:href="#DejaVuSans-20" x="376.513672"/>
     <use xlink:href="#DejaVuSans-47" x="408.300781"/>
     <use xlink:href="#DejaVuSans-61" x="485.791016"/>
     <use xlink:href="#DejaVuSans-74" x="547.070312"/>
     <use xlink:href="#DejaVuSans-65" x="586.279297"/>
    </g>
   </g>
   <g id="text_9">
    <!-- M8 Harvest -->
    <g style="fill: #333333" transform="translate(934.530672 389.183313) scale(0.11 -0.11)">
     <defs>
      <path id="DejaVuSans-38" d="M 2034 2216 
Q 1584 2216 1326 1975 
Q 1069 1734 1069 1313 
Q 1069 891 1326 650 
Q 1584 409 2034 409 
Q 2484 409 2743 651 
Q 3003 894 3003 1313 
Q 3003 1734 2745 1975 
Q 2488 2216 2034 2216 
z
M 1403 2484 
Q 997 2584 770 2862 
Q 544 3141 544 3541 
Q 544 4100 942 4425 
Q 1341 4750 2034 4750 
Q 2731 4750 3128 4425 
Q 3525 4100 3525 3541 
Q 3525 3141 3298 2862 
Q 3072 2584 2669 2484 
Q 3125 2378 3379 2068 
Q 3634 1759 3634 1313 
Q 3634 634 3220 271 
Q 2806 -91 2034 -91 
Q 1263 -91 848 271 
Q 434 634 434 1313 
Q 434 1759 690 2068 
Q 947 2378 1403 2484 
z
M 1172 3481 
Q 1172 3119 1398 2916 
Q 1625 2713 2034 2713 
Q 2441 2713 2670 2916 
Q 2900 3119 2900 3481 
Q 2900 3844 2670 4047 
Q 2441 4250 2034 4250 
Q 1625 4250 1398 4047 
Q 1172 3844 1172 3481 
z
" transform="scale(0.015625)"/>
      <path id="DejaVuSans-48" d="M 628 4666 
L 1259 4666 
L 1259 2753 
L 3553 2753 
L 3553 4666 
L 4184 4666 
L 4184 0 
L 3553 0 
L 3553 2222 
L 1259 2222 
L 1259 0 
L 628 0 
L 628 4666 
z
" transform="scale(0.015625)"/>
     </defs>
     <use xlink:href="#DejaVuSans-4d"/>
     <use xlink:href="#DejaVuSans-38" x="86.279297"/>
     <use xlink:href="#DejaVuSans-20" x="149.902344"/>
     <use xlink:href="#DejaVuSans-48" x="181.689453"/>
     <use xlink:href="#DejaVuSans-61" x="256.884766"/>
     <use xlink:href="#DejaVuSans-72" x="318.164062"/>
     <use xlink:href="#DejaVuSans-76" x="359.277344"/>
     <use xlink:href="#DejaVuSans-65" x="418.457031"/>
     <use xlink:href="#DejaVuSans-73" x="479.980469"/>
     <use xlink:href="#DejaVuSans-74" x="532.080078"/>
    </g>
   </g>
   <g id="text_10">
    <!-- M9 Secondary Deep -->
    <g style="fill: #333333" transform="translate(1138.250766 389.183313) scale(0.11 -0.11)">
     <defs>
      <path id="DejaVuSans-39" d="M 703 97 
L 703 672 
Q 941 559 1184 500 
Q 1428 441 1663 441 
Q 2288 441 2617 861 
Q 2947 1281 2994 2138 
Q 2813 1869 2534 1725 
Q 2256 1581 1919 1581 
Q 1219 1581 811 2004 
Q 403 2428 403 3163 
Q 403 3881 828 4315 
Q 1253 4750 1959 4750 
Q 2769 4750 3195 4129 
Q 3622 3509 3622 2328 
Q 3622 1225 3098 567 
Q 2575 -91 1691 -91 
Q 1453 -91 1209 -44 
Q 966 3 703 97 
z
M 1959 2075 
Q 2384 2075 2632 2365 
Q 2881 2656 2881 3163 
Q 2881 3666 2632 3958 
Q 2384 4250 1959 4250 
Q 1534 4250 1286 3958 
Q 1038 3666 1038 3163 
Q 1038 2656 1286 2365 
Q 1534 2075 1959 2075 
z
" transform="scale(0.015625)"/>
     </defs>
     <use xlink:href="#DejaVuSans-4d"/>
     <use xlink:href="#DejaVuSans-39" x="86.279297"/>
     <use xlink:href="#DejaVuSans-20" x="149.902344"/>
     <use xlink:href="#DejaVuSans-53" x="181.689453"/>
     <use xlink:href="#DejaVuSans-65" x="245.166016"/>
     <use xlink:href="#DejaVuSans-63" x="306.689453"/>
     <use xlink:href="#DejaVuSans-6f" x="361.669922"/>
     <use xlink:href="#DejaVuSans-6e" x="422.851562"/>
     <use xlink:href="#DejaVuSans-64" x="486.230469"/>
     <use xlink:href="#DejaVuSans-61" x="549.707031"/>
     <use xlink:href="#DejaVuSans-72" x="610.986328"/>
     <use xlink:href="#DejaVuSans-79" x="652.099609"/>
     <use xlink:href="#DejaVuSans-20" x="711.279297"/>
     <use xlink:href="#DejaVuSans-44" x="743.066406"/>
     <use xlink:href="#DejaVuSans-65" x="820.068359"/>
     <use xlink:href="#DejaVuSans-65" x="881.591797"/>
     <use xlink:href="#DejaVuSans-70" x="943.115234"/>
    </g>
   </g>
   <g id="text_11">
    <!-- M10 ESD Crisis -->
    <g style="fill: #333333" transform="translate(469.294078 389.183313) scale(0.11 -0.11)">
     <defs>
      <path id="DejaVuSans-30" d="M 2034 4250 
Q 1547 4250 1301 3770 
Q 1056 3291 1056 2328 
Q 1056 1369 1301 889 
Q 1547 409 2034 409 
Q 2525 409 2770 889 
Q 3016 1369 3016 2328 
Q 3016 3291 2770 3770 
Q 2525 4250 2034 4250 
z
M 2034 4750 
Q 2819 4750 3233 4129 
Q 3647 3509 3647 2328 
Q 3647 1150 3233 529 
Q 2819 -91 2034 -91 
Q 1250 -91 836 529 
Q 422 1150 422 2328 
Q 422 3509 836 4129 
Q 1250 4750 2034 4750 
z
" transform="scale(0.015625)"/>
     </defs>
     <use xlink:href="#DejaVuSans-4d"/>
     <use xlink:href="#DejaVuSans-31" x="86.279297"/>
     <use xlink:href="#DejaVuSans-30" x="149.902344"/>
     <use xlink:href="#DejaVuSans-20" x="213.525391"/>
     <use xlink:href="#DejaVuSans-45" x="245.3125"/>
     <use xlink:href="#DejaVuSans-53" x="308.496094"/>
     <use xlink:href="#DejaVuSans-44" x="371.972656"/>
     <use xlink:href="#DejaVuSans-20" x="448.974609"/>
     <use xlink:href="#DejaVuSans-43" x="480.761719"/>
     <use xlink:href="#DejaVuSans-72" x="550.585938"/>
     <use xlink:href="#DejaVuSans-69" x="591.699219"/>
     <use xlink:href="#DejaVuSans-73" x="619.482422"/>
     <use xlink:href="#DejaVuSans-69" x="671.582031"/>
     <use xlink:href="#DejaVuSans-73" x="699.365234"/>
    </g>
   </g>
   <g id="text_12">
    <!-- M11 Scenario -->
    <g style="fill: #333333" transform="translate(700.885422 531.479312) scale(0.11 -0.11)">
     <use xlink:href="#DejaVuSans-4d"/>
     <use xlink:href="#DejaVuSans-31" x="86.279297"/>
     <use xlink:href="#DejaVuSans-31" x="149.902344"/>
     <use xlink:href="#DejaVuSans-20" x="213.525391"/>
     <use xlink:href="#DejaVuSans-53" x="245.3125"/>
     <use xlink:href="#DejaVuSans-63" x="308.789062"/>
     <use xlink:href="#DejaVuSans-65" x="363.769531"/>
     <use xlink:href="#DejaVuSans-6e" x="425.292969"/>
     <use xlink:href="#DejaVuSans-61" x="488.671875"/>
     <use xlink:href="#DejaVuSans-72" x="549.951172"/>
     <use xlink:href="#DejaVuSans-69" x="591.064453"/>
     <use xlink:href="#DejaVuSans-6f" x="618.847656"/>
    </g>
   </g>
   <g id="text_13">
    <!-- M12 Final -->
    <g style="fill: #333333" transform="translate(939.783172 531.479312) scale(0.11 -0.11)">
     <use xlink:href="#DejaVuSans-4d"/>
     <use xlink:href="#DejaVuSans-31" x="86.279297"/>
     <use xlink:href="#DejaVuSans-32" x="149.902344"/>
     <use xlink:href="#DejaVuSans-20" x="213.525391"/>
     <use xlink:href="#DejaVuSans-46" x="245.3125"/>
     <use xlink:href="#DejaVuSans-69" x="295.582031"/>
     <use xlink:href="#DejaVuSans-6e" x="323.365234"/>
     <use xlink:href="#DejaVuSans-61" x="386.744141"/>
     <use xlink:href="#DejaVuSans-6c" x="448.023438"/>
    </g>
   </g>
   <g id="text_14">
    <!-- M13 Policy Response -->
    <g style="fill: #333333" transform="translate(1136.142719 531.479312) scale(0.11 -0.11)">
     <use xlink:href="#DejaVuSans-4d"/>
     <use xlink:href="#DejaVuSans-31" x="86.279297"/>
     <use xlink:href="#DejaVuSans-33" x="149.902344"/>
     <use xlink:href="#DejaVuSans-20" x="213.525391"/>
     <use xlink:href="#DejaVuSans-50" x="245.3125"/>
     <use xlink:href="#DejaVuSans-6f" x="301.990234"/>
     <use xlink:href="#DejaVuSans-6c" x="363.171875"/>
     <use xlink:href="#DejaVuSans-69" x="390.955078"/>
     <use xlink:href="#DejaVuSans-63" x="418.738281"/>
     <use xlink:href="#DejaVuSans-79" x="473.71875"/>
     <use xlink:href="#DejaVuSans-20" x="532.898438"/>
     <use xlink:href="#DejaVuSans-52" x="564.685547"/>
     <use xlink:href="#DejaVuSans-65" x="629.667969"/>
     <use xlink:href="#DejaVuSans-73" x="691.191406"/>
     <use xlink:href="#DejaVuSans-70" x="743.291016"/>
     <use xlink:href="#DejaVuSans-6f" x="806.767578"/>
     <use xlink:href="#DejaVuSans-6e" x="867.949219"/>
     <use xlink:href="#DejaVuSans-73" x="931.328125"/>
     <use xlink:href="#DejaVuSans-65" x="983.427734"/>
    </g>
   </g>
   <g id="text_15">
    <!-- Person DB -->
    <g style="fill: #333333" transform="translate(482.389234 673.775312) scale(0.11 -0.11)">
     <use xlink:href="#DejaVuSans-50"/>
     <use xlink:href="#DejaVuSans-65" x="56.677734"/>
     <use xlink:href="#DejaVuSans-72" x="118.201172"/>
     <use xlink:href="#DejaVuSans-73" x="159.314453"/>
     <use xlink:href="#DejaVuSans-6f" x="211.414062"/>
     <use xlink:href="#DejaVuSans-6e" x="272.595703"/>
     <use xlink:href="#DejaVuSans-20" x="335.974609"/>
     <use xlink:href="#DejaVuSans-44" x="367.761719"/>
     <use xlink:href="#DejaVuSans-42" x="444.763672"/>
    </g>
   </g>
   <g id="text_16">
    <!-- Event DB -->
    <g style="fill: #333333" transform="translate(712.774875 673.775312) scale(0.11 -0.11)">
     <use xlink:href="#DejaVuSans-45"/>
     <use xlink:href="#DejaVuSans-76" x="63.183594"/>
     <use xlink:href="#DejaVuSans-65" x="122.363281"/>
     <use xlink:href="#DejaVuSans-6e" x="183.886719"/>
     <use xlink:href="#DejaVuSans-74" x="247.265625"/>
     <use xlink:href="#DejaVuSans-20" x="286.474609"/>
     <use xlink:href="#DejaVuSans-44" x="318.261719"/>
     <use xlink:href="#DejaVuSans-42" x="395.263672"/>
    </g>
   </g>
   <g id="text_17">
    <!-- Vector DB -->
    <g style="fill: #333333" transform="translate(1166.332562 673.775312) scale(0.11 -0.11)">
     <defs>
      <path id="DejaVuSans-56" d="M 1831 0 
L 50 4666 
L 709 4666 
L 2188 738 
L 3669 4666 
L 4325 4666 
L 2547 0 
L 1831 0 
z
" transform="scale(0.015625)"/>
     </defs>
     <use xlink:href="#DejaVuSans-56"/>
     <use xlink:href="#DejaVuSans-65" x="60.658203"/>
     <use xlink:href="#DejaVuSans-63" x="122.181641"/>
     <use xlink:href="#DejaVuSans-74" x="177.162109"/>
     <use xlink:href="#DejaVuSans-6f" x="216.371094"/>
     <use xlink:href="#DejaVuSans-72" x="277.552734"/>
     <use xlink:href="#DejaVuSans-20" x="318.666016"/>
     <use xlink:href="#DejaVuSans-44" x="350.453125"/>
     <use xlink:href="#DejaVuSans-42" x="427.455078"/>
    </g>
   </g>
   <g id="text_18">
    <!-- Indicator Store -->
    <g style="fill: #333333" transform="translate(349.508578 531.479312) scale(0.11 -0.11)">
     <defs>
      <path id="DejaVuSans-49" d="M 628 4666 
L 1259 4666 
L 1259 0 
L 628 0 
L 628 4666 
z
" transform="scale(0.015625)"/>
     </defs>
     <use xlink:href="#DejaVuSans-49"/>
     <use xlink:href="#DejaVuSans-6e" x="29.492188"/>
     <use xlink:href="#DejaVuSans-64" x="92.871094"/>
     <use xlink:href="#DejaVuSans-69" x="156.347656"/>
     <use xlink:href="#DejaVuSans-63" x="184.130859"/>
     <use xlink:href="#DejaVuSans-61" x="239.111328"/>
     <use xlink:href="#DejaVuSans-74" x="300.390625"/>
     <use xlink:href="#DejaVuSans-6f" x="339.599609"/>
     <use xlink:href="#DejaVuSans-72" x="400.78125"/>
     <use xlink:href="#DejaVuSans-20" x="441.894531"/>
     <use xlink:href="#DejaVuSans-53" x="473.681641"/>
     <use xlink:href="#DejaVuSans-74" x="537.158203"/>
     <use xlink:href="#DejaVuSans-6f" x="576.367188"/>
     <use xlink:href="#DejaVuSans-72" x="637.548828"/>
     <use xlink:href="#DejaVuSans-65" x="676.412109"/>
    </g>
   </g>
   <g id="text_19">
    <!-- IPD -->
    <g style="fill: #333333" transform="translate(380.922172 673.775312) scale(0.11 -0.11)">
     <use xlink:href="#DejaVuSans-49"/>
     <use xlink:href="#DejaVuSans-50" x="29.492188"/>
     <use xlink:href="#DejaVuSans-44" x="89.794922"/>
    </g>
   </g>
   <g id="text_20">
    <!-- Ambiguous Queue (HITL) -->
    <g style="fill: #333333" transform="translate(1164.919969 389.183313) scale(0.11 -0.11)">
     <defs>
      <path id="DejaVuSans-41" d="M 2188 4044 
L 1331 1722 
L 3047 1722 
L 2188 4044 
z
M 1831 4666 
L 2547 4666 
L 4325 0 
L 3669 0 
L 3244 1197 
L 1141 1197 
L 716 0 
L 50 0 
L 1831 4666 
z
" transform="scale(0.015625)"/>
      <path id="DejaVuSans-62" d="M 3116 1747 
Q 3116 2381 2855 2742 
Q 2594 3103 2138 3103 
Q 1681 3103 1420 2742 
Q 1159 2381 1159 1747 
Q 1159 1113 1420 752 
Q 1681 391 2138 391 
Q 2594 391 2855 752 
Q 3116 1113 3116 1747 
z
M 1159 2969 
Q 1341 3281 1617 3432 
Q 1894 3584 2278 3584 
Q 2916 3584 3314 3078 
Q 3713 2572 3713 1747 
Q 3713 922 3314 415 
Q 2916 -91 2278 -91 
Q 1894 -91 1617 61 
Q 1341 213 1159 525 
L 1159 0 
L 581 0 
L 581 4863 
L 1159 4863 
L 1159 2969 
z
" transform="scale(0.015625)"/>
      <path id="DejaVuSans-51" d="M 2522 4238 
Q 1834 4238 1429 3725 
Q 1025 3213 1025 2328 
Q 1025 1447 1429 934 
Q 1834 422 2522 422 
Q 3209 422 3611 934 
Q 4013 1447 4013 2328 
Q 4013 3213 3611 3725 
Q 3209 4238 2522 4238 
z
M 3406 84 
L 4238 -825 
L 3475 -825 
L 2784 -78 
Q 2681 -84 2626 -87 
Q 2572 -91 2522 -91 
Q 1538 -91 948 567 
Q 359 1225 359 2328 
Q 359 3434 948 4092 
Q 1538 4750 2522 4750 
Q 3503 4750 4090 4092 
Q 4678 3434 4678 2328 
Q 4678 1516 4351 937 
Q 4025 359 3406 84 
z
" transform="scale(0.015625)"/>
      <path id="DejaVuSans-54" d="M -19 4666 
L 3928 4666 
L 3928 4134 
L 2272 4134 
L 2272 0 
L 1638 0 
L 1638 4134 
L -19 4134 
L -19 4666 
z
" transform="scale(0.015625)"/>
     </defs>
     <use xlink:href="#DejaVuSans-41"/>
     <use xlink:href="#DejaVuSans-6d" x="68.408203"/>
     <use xlink:href="#DejaVuSans-62" x="165.820312"/>
     <use xlink:href="#DejaVuSans-69" x="229.296875"/>
     <use xlink:href="#DejaVuSans-67" x="257.080078"/>
     <use xlink:href="#DejaVuSans-75" x="320.556641"/>
     <use xlink:href="#DejaVuSans-6f" x="383.935547"/>
     <use xlink:href="#DejaVuSans-75" x="445.117188"/>
     <use xlink:href="#DejaVuSans-73" x="508.496094"/>
     <use xlink:href="#DejaVuSans-20" x="560.595703"/>
     <use xlink:href="#DejaVuSans-51" x="592.382812"/>
     <use xlink:href="#DejaVuSans-75" x="671.09375"/>
     <use xlink:href="#DejaVuSans-65" x="734.472656"/>
     <use xlink:href="#DejaVuSans-75" x="795.996094"/>
     <use xlink:href="#DejaVuSans-65" x="859.375"/>
     <use xlink:href="#DejaVuSans-20" x="920.898438"/>
     <use xlink:href="#DejaVuSans-28" x="952.685547"/>
     <use xlink:href="#DejaVuSans-48" x="991.699219"/>
     <use xlink:href="#DejaVuSans-49" x="1066.894531"/>
     <use xlink:href="#DejaVuSans-54" x="1096.386719"/>
     <use xlink:href="#DejaVuSans-4c" x="1157.470703"/>
     <use xlink:href="#DejaVuSans-29" x="1213.183594"/>
    </g>
   </g>
  </g>
 </g>
 <defs>
  <clipPath id="p99261fc694">
   <rect x="216" y="120.96" width="1339.2" height="776.16"/>
  </clipPath>
 </defs>
</svg>
